<mxfile host="65bd71144e">
    <diagram id="CQzcDcZlTINeK-SJ2JHd" name="Page-1">
        <mxGraphModel dx="985" dy="654" grid="0" gridSize="10" guides="1" tooltips="1" connect="1" arrows="1" fold="1" page="1" pageScale="1" pageWidth="800" pageHeight="320" background="#ffffff" math="0" shadow="0">
            <root>
                <mxCell id="0"/>
                <mxCell id="1" parent="0"/>
                <mxCell id="3" value="Record Label" style="rounded=0;whiteSpace=wrap;html=1;fillColor=#e3c800;fontColor=#000000;strokeColor=#B09500;fontStyle=1" parent="1" vertex="1">
                    <mxGeometry x="272" y="140" width="80" height="60" as="geometry"/>
                </mxCell>
                <mxCell id="4" value="Distributor" style="rounded=0;whiteSpace=wrap;html=1;fillColor=#e3c800;fontColor=#000000;strokeColor=#B09500;fontStyle=1" parent="1" vertex="1">
                    <mxGeometry x="473" y="140" width="80" height="60" as="geometry"/>
                </mxCell>
                <mxCell id="20" value="Wholesale albums" style="rounded=0;whiteSpace=wrap;html=1;fillColor=#1ba1e2;fontColor=#ffffff;strokeColor=#006EAF;fontStyle=1" parent="1" vertex="1">
                    <mxGeometry x="372" y="235" width="80" height="60" as="geometry"/>
                </mxCell>
                <mxCell id="22" value="Music" style="rounded=0;whiteSpace=wrap;html=1;fillColor=#1ba1e2;fontColor=#ffffff;strokeColor=#006EAF;fontStyle=1" parent="1" vertex="1">
                    <mxGeometry x="170" y="53" width="80" height="60" as="geometry"/>
                </mxCell>
                <mxCell id="23" value="Artist" style="rounded=0;whiteSpace=wrap;html=1;fillColor=#647687;fontColor=#ffffff;strokeColor=#314354;fontStyle=1" parent="1" vertex="1">
                    <mxGeometry x="69" y="140" width="80" height="60" as="geometry"/>
                </mxCell>
                <mxCell id="24" value="Music Retail Store" style="rounded=0;whiteSpace=wrap;html=1;fillColor=#e3c800;fontColor=#000000;strokeColor=#B09500;fontStyle=1" parent="1" vertex="1">
                    <mxGeometry x="570" y="235" width="80" height="60" as="geometry"/>
                </mxCell>
                <mxCell id="26" value="" style="endArrow=classic;html=1;strokeColor=#3700CC;fontColor=#FFFFFF;fillColor=#6a00ff;curved=1;edgeStyle=orthogonalEdgeStyle;endFill=1;fontFamily=Tahoma;" parent="1" edge="1">
                    <mxGeometry width="50" height="50" relative="1" as="geometry">
                        <mxPoint x="101" y="132" as="sourcePoint"/>
                        <mxPoint x="159" y="82" as="targetPoint"/>
                        <Array as="points">
                            <mxPoint x="101" y="82"/>
                        </Array>
                    </mxGeometry>
                </mxCell>
                <mxCell id="27" value="Produces" style="edgeLabel;html=1;align=center;verticalAlign=middle;resizable=0;points=[];fontColor=#4C0099;labelBackgroundColor=none;fontFamily=Comic Sans MS;" parent="26" vertex="1" connectable="0">
                    <mxGeometry x="0.3189" y="-4" relative="1" as="geometry">
                        <mxPoint x="-18" y="-7" as="offset"/>
                    </mxGeometry>
                </mxCell>
                <mxCell id="28" value="" style="endArrow=classic;html=1;strokeColor=#3700CC;fontColor=#FFFFFF;fillColor=#6a00ff;curved=1;edgeStyle=orthogonalEdgeStyle;endFill=1;fontFamily=Tahoma;" parent="1" edge="1">
                    <mxGeometry width="50" height="50" relative="1" as="geometry">
                        <mxPoint x="254" y="85.97" as="sourcePoint"/>
                        <mxPoint x="315" y="136.97" as="targetPoint"/>
                        <Array as="points">
                            <mxPoint x="255" y="85.97"/>
                            <mxPoint x="315" y="84.97"/>
                        </Array>
                    </mxGeometry>
                </mxCell>
                <mxCell id="29" value="Published by" style="edgeLabel;html=1;align=center;verticalAlign=middle;resizable=0;points=[];fontColor=#4C0099;labelBackgroundColor=none;fontFamily=Comic Sans MS;" parent="28" vertex="1" connectable="0">
                    <mxGeometry x="0.3189" y="-4" relative="1" as="geometry">
                        <mxPoint x="-16" y="-24" as="offset"/>
                    </mxGeometry>
                </mxCell>
                <mxCell id="30" value="" style="endArrow=classic;html=1;strokeColor=#3700CC;fontColor=#FFFFFF;fillColor=#6a00ff;curved=1;edgeStyle=orthogonalEdgeStyle;endFill=1;fontFamily=Tahoma;" parent="1" edge="1">
                    <mxGeometry width="50" height="50" relative="1" as="geometry">
                        <mxPoint x="309" y="211" as="sourcePoint"/>
                        <mxPoint x="352" y="268" as="targetPoint"/>
                        <Array as="points">
                            <mxPoint x="308" y="211"/>
                            <mxPoint x="308" y="268"/>
                        </Array>
                    </mxGeometry>
                </mxCell>
                <mxCell id="32" value="" style="endArrow=classic;html=1;strokeColor=#3700CC;fontColor=#FFFFFF;fillColor=#6a00ff;curved=1;edgeStyle=orthogonalEdgeStyle;endFill=1;fontFamily=Tahoma;" parent="1" edge="1">
                    <mxGeometry width="50" height="50" relative="1" as="geometry">
                        <mxPoint x="600" y="218" as="sourcePoint"/>
                        <mxPoint x="658" y="168" as="targetPoint"/>
                        <Array as="points">
                            <mxPoint x="600" y="168"/>
                        </Array>
                    </mxGeometry>
                </mxCell>
                <mxCell id="33" value="Sales album to" style="edgeLabel;html=1;align=center;verticalAlign=middle;resizable=0;points=[];fontColor=#4C0099;labelBackgroundColor=none;fontFamily=Comic Sans MS;" parent="32" vertex="1" connectable="0">
                    <mxGeometry x="0.3189" y="-4" relative="1" as="geometry">
                        <mxPoint x="-6" y="-16" as="offset"/>
                    </mxGeometry>
                </mxCell>
                <mxCell id="39" value="Music Album Distribution" style="text;strokeColor=none;fillColor=none;html=1;fontSize=24;fontStyle=1;verticalAlign=middle;align=center;labelBackgroundColor=none;fontFamily=Helvetica;fontColor=#000000;" parent="1" vertex="1">
                    <mxGeometry x="505" y="5" width="100" height="40" as="geometry"/>
                </mxCell>
                <mxCell id="43" value="" style="endArrow=classic;html=1;strokeColor=#3700CC;fontColor=#FFFFFF;fillColor=#6a00ff;curved=1;edgeStyle=orthogonalEdgeStyle;endFill=1;fontFamily=Tahoma;" edge="1" parent="1">
                    <mxGeometry width="50" height="50" relative="1" as="geometry">
                        <mxPoint x="514" y="207" as="sourcePoint"/>
                        <mxPoint x="557" y="264" as="targetPoint"/>
                        <Array as="points">
                            <mxPoint x="513" y="207"/>
                            <mxPoint x="513" y="264"/>
                        </Array>
                    </mxGeometry>
                </mxCell>
                <mxCell id="44" value="Delivers wholesale&lt;br&gt;albums" style="edgeLabel;html=1;align=center;verticalAlign=middle;resizable=0;points=[];fontColor=#4C0099;labelBackgroundColor=none;fontFamily=Comic Sans MS;" vertex="1" connectable="0" parent="43">
                    <mxGeometry x="0.3189" y="-4" relative="1" as="geometry">
                        <mxPoint x="-3" y="13" as="offset"/>
                    </mxGeometry>
                </mxCell>
                <mxCell id="45" value="Music Fan" style="rounded=0;whiteSpace=wrap;html=1;fillColor=#647687;fontColor=#ffffff;strokeColor=#314354;fontStyle=1" vertex="1" parent="1">
                    <mxGeometry x="662" y="140" width="80" height="60" as="geometry"/>
                </mxCell>
                <mxCell id="46" value="" style="endArrow=classic;html=1;strokeColor=#3700CC;fontColor=#FFFFFF;fillColor=#6a00ff;curved=1;edgeStyle=orthogonalEdgeStyle;endFill=1;fontFamily=Tahoma;" edge="1" parent="1">
                    <mxGeometry width="50" height="50" relative="1" as="geometry">
                        <mxPoint x="402" y="225" as="sourcePoint"/>
                        <mxPoint x="460" y="169" as="targetPoint"/>
                        <Array as="points">
                            <mxPoint x="402" y="169"/>
                        </Array>
                    </mxGeometry>
                </mxCell>
                <mxCell id="47" value="Distributed by" style="edgeLabel;html=1;align=center;verticalAlign=middle;resizable=0;points=[];fontColor=#4C0099;labelBackgroundColor=none;fontFamily=Comic Sans MS;" vertex="1" connectable="0" parent="46">
                    <mxGeometry x="0.3189" y="-4" relative="1" as="geometry">
                        <mxPoint x="-6" y="-16" as="offset"/>
                    </mxGeometry>
                </mxCell>
            </root>
        </mxGraphModel>
    </diagram>
</mxfile>